<svg width="80" height="80" viewBox="0 0 80 80" fill="none" xmlns="http://www.w3.org/2000/svg">
<path d="M39.8216 1.60742L47.771 10.3326L59.018 6.75109L61.5399 18.282L73.0708 20.8039L69.4893 32.0508L78.2144 40.0003L69.4893 47.9497L73.0708 59.1967L61.5399 61.7186L59.018 73.2495L47.771 69.668L39.8216 78.3931L31.8721 69.668L20.6251 73.2495L18.1033 61.7186L6.57238 59.1967L10.1538 47.9497L1.42871 40.0003L10.1538 32.0508L6.57238 20.8039L18.1033 18.282L20.6251 6.75109L31.8721 10.3326L39.8216 1.60742Z" fill="#FF0420"/>
<path fill-rule="evenodd" clip-rule="evenodd" d="M35.5379 39.2148C36.3221 39.2148 36.9577 39.8506 36.9577 40.6349C36.9577 42.2035 38.229 43.475 39.7973 43.475C41.3655 43.475 42.6369 42.2035 42.6369 40.6349C42.6369 39.8506 43.2725 39.2148 44.0566 39.2148C44.8408 39.2148 45.4764 39.8506 45.4764 40.6349C45.4764 43.772 42.9338 46.3151 39.7973 46.3151C36.6608 46.3151 34.1182 43.772 34.1182 40.6349C34.1182 39.8506 34.7538 39.2148 35.5379 39.2148Z" fill="white"/>
<path d="M26.3101 27.6758L27.131 29.7575C27.8561 31.5965 29.3089 33.0512 31.1428 33.7746L33.2315 34.5986L31.1428 35.4225C29.3089 36.146 27.8561 37.6006 27.131 39.4396L26.3101 41.5214L25.4892 39.4396C24.7641 37.6006 23.3113 36.146 21.4774 35.4225L19.3887 34.5986L21.4774 33.7746C23.3113 33.0512 24.7641 31.5965 25.4892 29.7575L26.3101 27.6758Z" fill="white"/>
<path d="M53.6412 27.6758L54.462 29.7575C55.1872 31.5965 56.6399 33.0512 58.4738 33.7746L60.5626 34.5986L58.4738 35.4225C56.6399 36.146 55.1872 37.6006 54.462 39.4396L53.6412 41.5214L52.8203 39.4396C52.0951 37.6006 50.6424 36.146 48.8085 35.4225L46.7197 34.5986L48.8085 33.7746C50.6424 33.0512 52.0951 31.5965 52.8203 29.7575L53.6412 27.6758Z" fill="white"/>
</svg>